G04 start of page 2 for group 10 layer_idx 5 *
G04 Title: (unknown), bottom_silk *
G04 Creator: pcb-rnd 3.1.5-dev *
G04 CreationDate: 2024-04-03 12:21:39 UTC *
G04 For: STEM4ukraine *
G04 Format: Gerber/RS-274X *
G04 PCB-Dimensions: 393701 393701 *
G04 PCB-Coordinate-Origin: lower left *
%MOIN*%
%FSLAX25Y25*%
%LNBOTTOM_SILK_NONE_10*%
%ADD37C,0.0080*%
%ADD36C,0.0070*%
%ADD35C,0.0197*%
%ADD34C,0.0276*%
%ADD33C,0.0150*%
%ADD32C,0.0200*%
%ADD31C,0.0100*%
G54D31*X363878Y35472D02*X348878D01*
X343878Y30472D01*
Y10472D01*
X368878D02*Y30472D01*
X363878Y35472D01*
X343878Y10472D02*X368878D01*
G54D32*X380000Y43898D02*Y29409D01*
G54D31*X285138Y9843D02*X277638D01*
X300138Y12343D02*Y7343D01*
Y12343D02*X285138D01*
Y7343D02*X300138D01*
X285138D02*Y12343D01*
G54D32*X380000Y2165D02*X332598D01*
G54D31*X307638Y9843D02*X300138D01*
X262795D02*X255295D01*
X240295Y7343D02*X255295D01*
X200551Y14843D02*Y4843D01*
X220551D02*Y14843D01*
Y4843D02*X200551D01*
X210551Y14843D02*Y4843D01*
X200551D02*X210551D01*
X240295Y9843D02*X232795D01*
X240295Y7343D02*Y12343D01*
X255295D02*Y7343D01*
G54D32*X15913Y23591D02*X13913Y25591D01*
X7913D02*X13913D01*
X7913Y17591D02*Y35591D01*
X13913Y17591D02*X7913D01*
X15913Y23591D02*Y19591D01*
X13913Y17591D01*
X59913Y19591D02*X61913Y17591D01*
X79913Y19591D02*X77913Y17591D01*
X67913D02*X61913D01*
X77913D02*X71913D01*
X85913D02*X83913Y19591D01*
X85913Y17591D02*X91913D01*
G54D33*X111095Y17448D02*X106440Y18355D01*
G54D31*X255295Y12343D02*X240295D01*
X200551Y14843D02*X220551D01*
G54D33*X112484Y14011D02*X111095Y17448D01*
X141548Y18049D02*X136878Y17223D01*
X135430Y13811D01*
G54D32*X19913Y23591D02*X21913Y25591D01*
X19913Y23591D02*Y17591D01*
X25913Y25591D02*X21913D01*
X37913D02*X31913D01*
X39913Y23591D02*X37913Y25591D01*
X61913D02*X59913Y23591D01*
X61913Y25591D02*X67913D01*
X59913Y19591D02*Y23591D01*
X53913Y21591D02*X45913D01*
X85913Y25591D02*X83913Y23591D01*
X79913D02*X77913Y25591D01*
X79913Y23591D02*Y19591D01*
X91913Y25591D02*Y9591D01*
X83913Y23591D02*Y19591D01*
X91913Y25591D02*X85913D01*
G54D33*X122095Y16032D02*X118964Y8474D01*
X117158Y9255D01*
X109766Y10125D02*X112484Y14011D01*
X106440Y18355D02*X106483Y23290D01*
X111154Y24116D01*
X125936Y16032D02*X129067Y8474D01*
X135430Y13811D02*X138080Y9878D01*
X134560Y6419D01*
X130674Y9137D01*
X129067Y8474D01*
X117158Y9255D02*X113224Y6606D01*
X109766Y10125D01*
X112602Y27528D02*X109952Y31461D01*
X113471Y34919D01*
X117358Y32201D01*
X111154Y24116D02*X112602Y27528D01*
X117358Y32201D02*X120794Y33590D01*
X121702Y38245D01*
X126636Y38202D01*
X127462Y33531D01*
X130874Y32083D01*
X134807Y34733D01*
X138266Y31214D01*
X135548Y27327D01*
X136936Y23891D01*
X141591Y22983D01*
X141548Y18049D01*
G54D32*X67913Y35591D02*Y17591D01*
X77913Y25591D02*X71913D01*
X39913D02*Y17591D01*
X27913Y23591D02*X25913Y25591D01*
X27913D02*Y17591D01*
X332598Y43898D02*X380000D01*
Y9646D02*Y2165D01*
G54D31*X149661Y274528D02*Y290669D01*
X163835Y277677D02*X149661D01*
X161472D02*Y290669D01*
X172296Y291960D02*Y282843D01*
X163835Y277677D02*Y274528D01*
X149661D01*
G54D34*X172018Y365915D02*X149606Y343504D01*
G54D32*X332598Y43898D02*Y29409D01*
Y9646D02*Y2165D01*
G54D31*X159110Y274528D02*Y249724D01*
X151630Y274528D02*Y259173D01*
X265800Y296881D02*Y287765D01*
X243165Y279449D02*Y295591D01*
X257339Y282598D02*X243165D01*
X254976D02*Y295591D01*
X257339Y282598D02*Y279449D01*
X243165D01*
X252614D02*Y254646D01*
X245134Y279449D02*Y264094D01*
G54D34*X244094Y343504D02*X221683Y365915D01*
X218760Y367126D02*X174941D01*
G54D31*X172296Y291960D02*G75*G02X185971Y282843I6837J-4558D01*G01*
X185971Y282843D02*G75*G02X172296Y282843I-6837J4558D01*G01*
X161472Y290669D02*G75*G03X149661Y290669I-5906J0D01*G01*
X265800Y296881D02*G75*G02X279475Y287765I6837J-4558D01*G01*
X279475Y287765D02*G75*G02X265800Y287765I-6837J4558D01*G01*
X254976Y295591D02*G75*G03X243165Y295591I-5906J0D01*G01*
G54D32*X9913Y37591D02*G75*G02X5913Y37591I-2000J0D01*G01*
G75*G02X9913Y37591I2000J0D01*G01*
X69913D02*G75*G02X65913Y37591I-2000J0D01*G01*
G75*G02X69913Y37591I2000J0D01*G01*
X93913Y7591D02*G75*G02X89913Y7591I-2000J0D01*G01*
G75*G02X93913Y7591I2000J0D01*G01*
G54D34*X221683Y365915D02*G75*G03X218760Y367126I-2923J-2923D01*G01*
X174941D02*G75*G03X172018Y365915I0J-4134D01*G01*
G54D33*X125936Y16032D02*G75*G03X122095Y25306I-1921J4637D01*G01*
X122095Y25306D02*G75*G03X122095Y16032I1921J-4637D01*G01*
G54D35*X302165Y235889D02*Y226689D01*
Y235889D02*X299097D01*
X297784Y235450D01*
X296908Y234573D01*
X296471Y233699D01*
X296034Y232384D01*
Y230192D01*
X296471Y228879D01*
X296908Y228002D01*
X297784Y227128D01*
X299097Y226689D01*
X302165D01*
X293274Y230199D02*X288020D01*
Y231073D01*
X288457Y231949D01*
X288894Y232388D01*
X289771Y232823D01*
X291084D01*
X291963Y232388D01*
X292839Y231512D01*
X293274Y230199D01*
Y229320D01*
X292839Y228007D01*
X291963Y227131D01*
X291084Y226691D01*
X289771D01*
X288894Y227131D01*
X288020Y228007D01*
X281757Y235889D02*X282631D01*
X283510Y235452D01*
X283949Y234139D01*
Y226689D01*
X285260Y232823D02*X282194D01*
X278560Y232844D02*Y226712D01*
X278997Y235912D02*X278560Y235473D01*
X278121Y235912D01*
X278560Y236349D01*
X278997Y235912D01*
X275361Y232823D02*Y226691D01*
Y231073D02*X274046Y232388D01*
X273172Y232823D01*
X271856D01*
X270982Y232388D01*
X270543Y231073D01*
Y226691D01*
X267346Y232844D02*Y226712D01*
X267783Y235912D02*X267346Y235473D01*
X266906Y235912D01*
X267346Y236349D01*
X267783Y235912D01*
X262831Y235889D02*Y228442D01*
X262396Y227128D01*
X261517Y226689D01*
X260641D01*
X264146Y232823D02*X261080D01*
X257881Y230199D02*X252628D01*
Y231073D01*
X253065Y231949D01*
X253502Y232388D01*
X254378Y232823D01*
X255691D01*
X256570Y232388D01*
X257446Y231512D01*
X257881Y230199D01*
Y229320D01*
X257446Y228007D01*
X256570Y227131D01*
X255691Y226691D01*
X254378D01*
X253502Y227131D01*
X252628Y228007D01*
X249868Y235889D02*Y226689D01*
X246671Y232823D02*X244042Y226691D01*
X241413Y232823D02*X244042Y226691D01*
X244918Y224941D01*
X245792Y224062D01*
X246671Y223623D01*
X247108D01*
X234513Y232823D02*Y226691D01*
Y231073D02*X233197Y232388D01*
X232323Y232823D01*
X231008D01*
X230134Y232388D01*
X229695Y231073D01*
Y226691D01*
X224745Y232823D02*X225624Y232388D01*
X226500Y231512D01*
X226935Y230199D01*
Y229320D01*
X226500Y228007D01*
X225624Y227131D01*
X224745Y226691D01*
X223432D01*
X222555Y227131D01*
X221681Y228007D01*
X221242Y229320D01*
Y230199D01*
X221681Y231512D01*
X222555Y232388D01*
X223432Y232823D01*
X224745D01*
X217166Y235889D02*Y228442D01*
X216732Y227128D01*
X215853Y226689D01*
X214977D01*
X218482Y232823D02*X215416D01*
X204574Y235889D02*X205448D01*
X206327Y235452D01*
X206766Y234139D01*
Y226689D01*
X208077Y232823D02*X205011D01*
X201814D02*Y228444D01*
X201377Y227131D01*
X200498Y226691D01*
X199185D01*
X198309Y227131D01*
X196995Y228444D01*
Y232823D02*Y226691D01*
X194235Y232823D02*Y226691D01*
Y231073D02*X192920Y232388D01*
X192046Y232823D01*
X190730D01*
X189856Y232388D01*
X189417Y231073D01*
Y226691D01*
X181404Y235889D02*Y226689D01*
Y231510D02*X182278Y232386D01*
X183154Y232823D01*
X184467D01*
X185346Y232386D01*
X186222Y231510D01*
X186657Y230196D01*
Y229320D01*
X186222Y228007D01*
X185346Y227128D01*
X184467Y226689D01*
X183154D01*
X182278Y227128D01*
X181404Y228007D01*
X178644Y230199D02*X173390D01*
Y231073D01*
X173828Y231949D01*
X174264Y232388D01*
X175141Y232823D01*
X176454D01*
X177333Y232388D01*
X178209Y231512D01*
X178644Y230199D01*
Y229320D01*
X178209Y228007D01*
X177333Y227131D01*
X176454Y226691D01*
X175141D01*
X174264Y227131D01*
X173390Y228007D01*
X165377Y235889D02*Y226689D01*
Y231510D02*X166251Y232386D01*
X167128Y232823D01*
X168441D01*
X169319Y232386D01*
X170196Y231510D01*
X170630Y230196D01*
Y229320D01*
X170196Y228007D01*
X169319Y227128D01*
X168441Y226689D01*
X167128D01*
X166251Y227128D01*
X165377Y228007D01*
X158477Y235889D02*Y226689D01*
Y231510D02*X157601Y232386D01*
X156727Y232823D01*
X155411D01*
X154537Y232386D01*
X153659Y231510D01*
X153219Y230196D01*
Y229320D01*
X153659Y228007D01*
X154537Y227128D01*
X155411Y226689D01*
X156727D01*
X157601Y227128D01*
X158477Y228007D01*
X150022Y232823D02*X147394Y226691D01*
X144765Y232823D02*X147394Y226691D01*
X148270Y224941D01*
X149144Y224062D01*
X150022Y223623D01*
X150459D01*
X136549Y235889D02*Y228442D01*
X136114Y227128D01*
X135236Y226689D01*
X134359D01*
X137865Y232823D02*X134799D01*
X131599Y235889D02*Y226689D01*
Y231070D02*X130288Y232386D01*
X129410Y232823D01*
X128097D01*
X127220Y232386D01*
X126781Y231070D01*
Y226689D01*
X124021Y230199D02*X118768D01*
Y231073D01*
X119205Y231949D01*
X119642Y232388D01*
X120518Y232823D01*
X121831D01*
X122710Y232388D01*
X123586Y231512D01*
X124021Y230199D01*
Y229320D01*
X123586Y228007D01*
X122710Y227131D01*
X121831Y226691D01*
X120518D01*
X119642Y227131D01*
X118768Y228007D01*
X105297Y233699D02*X105736Y234573D01*
X106612Y235450D01*
X107486Y235889D01*
X109241D01*
X110115Y235450D01*
X110994Y234573D01*
X111431Y233699D01*
X111868Y232384D01*
Y230192D01*
X111431Y228879D01*
X110994Y228002D01*
X110115Y227128D01*
X109241Y226689D01*
X107486D01*
X106612Y227128D01*
X105736Y228002D01*
X105297Y228879D01*
X102537Y235889D02*X100237D01*
X101387D02*Y226689D01*
X102537D02*X100237D01*
X93971Y235889D02*X97477Y226689D01*
X93971Y235889D02*X90466Y226689D01*
X96161Y229755D02*X91780D01*
X232170Y217520D02*X233047Y216643D01*
X233923Y215330D01*
X234802Y213575D01*
X235236Y211386D01*
Y209633D01*
X234802Y207443D01*
X233923Y205691D01*
X233047Y204377D01*
X232170Y203501D01*
X229410Y212154D02*X227660Y206022D01*
X225907Y212154D02*X227660Y206022D01*
X225907Y212154D02*X224153Y206022D01*
X222402Y212154D02*X224153Y206022D01*
X219205Y212174D02*Y206043D01*
X219642Y215243D02*X219205Y214803D01*
X218766Y215243D01*
X219205Y215680D01*
X219642Y215243D01*
X216006Y212154D02*Y206022D01*
Y210403D02*X214690Y211719D01*
X213816Y212154D01*
X212501D01*
X211627Y211719D01*
X211187Y210403D01*
Y206022D01*
X208427Y215220D02*Y206020D01*
X204048Y212154D02*X208427Y207772D01*
X206677Y209527D02*X203609Y206020D01*
X199973Y206270D02*X200410Y205836D01*
X200849Y206270D01*
X200410Y206710D01*
X199973Y206270D01*
Y205396D01*
X200849Y204520D01*
X193073Y212154D02*X191322Y206022D01*
X189570Y212154D02*X191322Y206022D01*
X189570Y212154D02*X187815Y206022D01*
X186064Y212154D02*X187815Y206022D01*
X182867Y212174D02*Y206043D01*
X183304Y215243D02*X182867Y214803D01*
X182428Y215243D01*
X182867Y215680D01*
X183304Y215243D01*
X179668Y212154D02*Y206022D01*
Y210403D02*X178353Y211719D01*
X177479Y212154D01*
X176163D01*
X175289Y211719D01*
X174850Y210403D01*
Y206022D01*
X172090Y215220D02*Y206020D01*
X167710Y212154D02*X172090Y207772D01*
X170339Y209527D02*X167271Y206020D01*
X164511Y217520D02*X163637Y216643D01*
X162759Y215330D01*
X161882Y213575D01*
X161448Y211386D01*
Y209633D01*
X161882Y207443D01*
X162759Y205691D01*
X163637Y204377D01*
X164511Y203501D01*
G54D34*X206693Y56613D02*X202125Y45949D01*
X197557Y56613D02*X202125Y45949D01*
X192757Y58901D02*X191237Y59661D01*
X188949Y61945D01*
Y45945D01*
G54D36*X196819Y11795D02*X196319Y11295D01*
X198319Y11795D02*X196819D01*
X198819Y11295D02*X198319Y11795D01*
X198819Y11295D02*Y8295D01*
X198319Y7795D01*
X196819D01*
X196319Y8295D01*
Y9295D02*Y8295D01*
X196819Y9795D02*X196319Y9295D01*
X197819Y9795D02*X196819D01*
X195119Y11795D02*Y7795D01*
Y11795D02*X192619Y7795D01*
Y11795D02*Y7795D01*
X190919Y11795D02*Y7795D01*
X189619Y11795D02*X188919Y11095D01*
Y8495D01*
X189619Y7795D02*X188919Y8495D01*
X191419Y7795D02*X189619D01*
X191419Y11795D02*X189619D01*
G54D34*X341698Y86232D02*X343222Y87756D01*
X345506Y88520D01*
X348554D01*
X350842Y87756D01*
X352362Y86232D01*
Y84712D01*
X351606Y83184D01*
X350842Y82424D01*
X349314Y81664D01*
X344742Y80140D01*
X343222Y79376D01*
X342462Y78616D01*
X341698Y77092D01*
Y74804D01*
X343222Y73284D01*
X345506Y72520D01*
X348554D01*
X350842Y73284D01*
X352362Y74804D01*
X331566Y88520D02*Y72520D01*
X336898Y88520D02*X326234D01*
X321434D02*Y72520D01*
Y88520D02*X311530D01*
X321434Y80900D02*X315342D01*
X321434Y72520D02*X311530D01*
X306730Y88520D02*Y72520D01*
Y88520D02*X300638Y72520D01*
X294538Y88520D02*X300638Y72520D01*
X294538Y88520D02*Y72520D01*
X282122Y88520D02*X289738Y77856D01*
X278314D01*
X282122Y88520D02*Y72520D01*
X273514Y83188D02*Y75572D01*
X272754Y73288D01*
X271226Y72524D01*
X268942D01*
X267418Y73288D01*
X265134Y75572D01*
Y83188D02*Y72524D01*
X260334Y88520D02*Y72520D01*
X252718Y83188D02*X260334Y75568D01*
X257290Y78620D02*X251954Y72520D01*
X247154Y83188D02*Y72524D01*
Y78616D02*X246394Y80908D01*
X244866Y82428D01*
X243346Y83188D01*
X241058D01*
X227114D02*Y72524D01*
Y80908D02*X228642Y82432D01*
X230162Y83188D01*
X232450D01*
X233970Y82432D01*
X235498Y80908D01*
X236258Y78624D01*
Y77096D01*
X235498Y74812D01*
X233970Y73288D01*
X232450Y72524D01*
X230162D01*
X228642Y73288D01*
X227114Y74812D01*
X221554Y83224D02*Y72560D01*
X222314Y88560D02*X221554Y87796D01*
X220790Y88560D01*
X221554Y89320D01*
X222314Y88560D01*
X215990Y83188D02*Y72524D01*
Y80144D02*X213702Y82432D01*
X212182Y83188D01*
X209894D01*
X208374Y82432D01*
X207610Y80144D01*
Y72524D01*
X202810Y78624D02*X193674D01*
Y80144D01*
X194434Y81668D01*
X195194Y82432D01*
X196718Y83188D01*
X199002D01*
X200530Y82432D01*
X202054Y80908D01*
X202810Y78624D01*
Y77096D01*
X202054Y74812D01*
X200530Y73288D01*
X199002Y72524D01*
X196718D01*
X195194Y73288D01*
X193674Y74812D01*
X188874Y80520D02*X178874D01*
X174074Y88520D02*Y72520D01*
Y88520D02*X163410Y72520D01*
Y88520D02*Y72520D01*
X152514Y88520D02*X158610Y72520D01*
X152514Y88520D02*X146418Y72520D01*
X156322Y77852D02*X148702D01*
X141618Y88520D02*Y72520D01*
Y88520D02*X131718D01*
X141618Y80900D02*X135526D01*
X123950Y88520D02*X125470Y87756D01*
X126998Y86232D01*
X127758Y84712D01*
X128518Y82424D01*
Y78616D01*
X127758Y76324D01*
Y76328D02*X126998Y74804D01*
X125470Y73284D01*
X123950Y72520D01*
X120898D01*
X119378Y73284D01*
X117854Y74804D01*
X117090Y76328D01*
X116334Y78616D01*
Y82424D01*
X117090Y84712D01*
X117854Y86232D01*
X119378Y87756D01*
X120898Y88520D01*
X123950D01*
X111534Y80520D02*X101534D01*
X90638Y88520D02*X96734Y72520D01*
X90638Y88520D02*X84542Y72520D01*
X94446Y77852D02*X86826D01*
X79742Y88520D02*Y72520D01*
X74942Y83188D02*Y67188D01*
Y80908D02*X73418Y82428D01*
X71898Y83188D01*
X69610D01*
X68086Y82428D01*
X66562Y80908D01*
X65798Y78616D01*
Y77096D01*
X66562Y74808D01*
X68086Y73288D01*
X69610Y72524D01*
X71898D01*
X73418Y73288D01*
X74942Y74808D01*
X60998Y88520D02*Y72520D01*
Y80140D02*X58718Y82428D01*
X57190Y83188D01*
X54906D01*
X53382Y82428D01*
X52618Y80140D01*
Y72520D01*
X38674Y83188D02*Y72524D01*
Y80908D02*X40202Y82432D01*
X41722Y83188D01*
X44010D01*
X45530Y82432D01*
X47058Y80908D01*
X47818Y78624D01*
Y77096D01*
X47058Y74812D01*
X45530Y73288D01*
X44010Y72524D01*
X41722D01*
X40202Y73288D01*
X38674Y74812D01*
G54D36*X255164Y17733D02*Y17924D01*
X254973Y18304D01*
X254784Y18495D01*
X254402Y18685D01*
X253641D01*
X253259Y18495D01*
X253069Y18304D01*
X252879Y17924D01*
Y17542D01*
X253069Y17161D01*
X253450Y16590D01*
X255354Y14685D01*
X252688D01*
X251298Y17733D02*Y17924D01*
X251107Y18304D01*
X250918Y18495D01*
X250536Y18685D01*
X249775D01*
X249393Y18495D01*
X249203Y18304D01*
X249013Y17924D01*
Y17542D01*
X249203Y17161D01*
X249584Y16590D01*
X251488Y14685D01*
X248822D01*
X246479Y18685D02*X247050Y18495D01*
X247432Y17924D01*
X247622Y16972D01*
Y16400D01*
X247432Y15447D01*
X247050Y14876D01*
X246479Y14685D01*
X246098D01*
X245527Y14876D01*
X245146Y15447D01*
X244955Y16400D01*
Y16972D01*
X245146Y17924D01*
X245527Y18495D01*
X246098Y18685D01*
X246479D01*
X243755D02*Y14685D01*
Y18685D02*X242041D01*
X241470Y18494D01*
X241279Y18304D01*
X241089Y17923D01*
Y17542D01*
X241279Y17161D01*
X241470Y16971D01*
X242041Y16780D01*
X243755D01*
X242422D02*X241089Y14685D01*
X253795Y11827D02*X251795D01*
X251295Y11327D01*
Y10327D01*
X251795Y9827D02*X251295Y10327D01*
X253295Y9827D02*X251795D01*
X253295Y11827D02*Y7827D01*
X252495Y9827D02*X251295Y7827D01*
X250095Y11327D02*X249595Y11827D01*
X248095D01*
X247595Y11327D01*
Y10327D01*
X250095Y7827D02*X247595Y10327D01*
X250095Y7827D02*X247595D01*
X223335Y19101D02*X221835D01*
X223335Y16901D02*X221335D01*
X223335Y20901D02*Y16901D01*
Y20901D02*X221335D01*
X220135Y16901D02*X217635Y20901D01*
X220135D02*X217635Y16901D01*
X216435Y20901D02*X214435D01*
X215435D02*Y16901D01*
X213235Y20901D02*X211235D01*
X213235D02*Y18901D01*
X212735Y19401D01*
X211735D01*
X211235Y18901D01*
Y17401D01*
X211735Y16901D02*X211235Y17401D01*
X212735Y16901D02*X211735D01*
X213235Y17401D02*X212735Y16901D01*
X210035Y20901D02*X209035Y16901D01*
X208035Y20901D01*
X300007Y17733D02*Y17924D01*
X299816Y18304D01*
X299627Y18495D01*
X299245Y18685D01*
X298484D01*
X298102Y18495D01*
X297912Y18304D01*
X297722Y17924D01*
Y17542D01*
X297912Y17161D01*
X298293Y16590D01*
X300197Y14685D01*
X297531D01*
X296141Y17733D02*Y17924D01*
X295950Y18304D01*
X295761Y18495D01*
X295379Y18685D01*
X294618D01*
X294236Y18495D01*
X294046Y18304D01*
X293856Y17924D01*
Y17542D01*
X294046Y17161D01*
X294427Y16590D01*
X296331Y14685D01*
X293665D01*
X291322Y18685D02*X291893Y18495D01*
X292275Y17924D01*
X292465Y16972D01*
Y16400D01*
X292275Y15447D01*
X291893Y14876D01*
X291322Y14685D01*
X290941D01*
X290370Y14876D01*
X289989Y15447D01*
X289798Y16400D01*
Y16972D01*
X289989Y17924D01*
X290370Y18495D01*
X290941Y18685D01*
X291322D01*
X288598D02*Y14685D01*
Y18685D02*X286884D01*
X286313Y18494D01*
X286122Y18304D01*
X285932Y17923D01*
Y17542D01*
X286122Y17161D01*
X286313Y16971D01*
X286884Y16780D01*
X288598D01*
X287265D02*X285932Y14685D01*
X342972Y35220D02*X341972Y31220D01*
X340972Y35220D01*
X339272Y33220D02*X337772D01*
X339772Y32720D02*X339272Y33220D01*
X339772Y32720D02*Y31720D01*
X339272Y31220D01*
X337772D01*
X336072Y33220D02*X334572D01*
X336572Y32720D02*X336072Y33220D01*
X336572Y32720D02*Y31720D01*
X336072Y31220D01*
X334572D01*
X298638Y11827D02*X296638D01*
X296138Y11327D01*
Y10327D01*
X296638Y9827D02*X296138Y10327D01*
X298138Y9827D02*X296638D01*
X298138Y11827D02*Y7827D01*
X297338Y9827D02*X296138Y7827D01*
X294938Y11027D02*X294138Y11827D01*
Y7827D01*
X294938D02*X293438D01*
G54D37*X62913Y32591D02*Y29591D01*
Y32591D02*X61913Y33591D01*
X60913D01*
X59913Y32591D01*
Y29591D01*
Y32591D02*X58913Y33591D01*
X57913D01*
X56913Y32591D01*
Y29591D01*
X63913Y33591D02*X62913Y32591D01*
X51513Y33591D02*X50513Y32591D01*
X53513Y33591D02*X51513D01*
X54513Y32591D02*X53513Y33591D01*
X54513Y32591D02*Y30591D01*
X53513Y29591D01*
X50513Y33591D02*Y30591D01*
X49513Y29591D01*
X53513D02*X51513D01*
X50513Y30591D01*
X43113Y37591D02*Y29591D01*
X44113D02*X43113Y30591D01*
X46113Y29591D02*X44113D01*
X47113Y30591D02*X46113Y29591D01*
X47113Y32591D02*Y30591D01*
Y32591D02*X46113Y33591D01*
X44113D01*
X43113Y32591D01*
X39713Y29591D02*X36713D01*
X40713Y30591D02*X39713Y29591D01*
X40713Y32591D02*Y30591D01*
Y32591D02*X39713Y33591D01*
X37713D01*
X36713Y32591D01*
X40713Y31591D02*X36713D01*
Y32591D01*
X30713Y33591D02*Y30591D01*
X29713Y29591D01*
X28713D01*
X27713Y30591D01*
Y33591D02*Y30591D01*
X26713Y29591D01*
X25713D01*
X24713Y30591D01*
Y33591D02*Y30591D01*
G54D31*X22313Y35591D02*Y35391D01*
G54D37*Y32591D02*Y29591D01*
X19313Y37591D02*Y30591D01*
X18313Y29591D01*
X20313Y34591D02*X18313D01*
X16313Y37591D02*Y29591D01*
Y32591D02*X15313Y33591D01*
X13313D01*
X12313Y32591D01*
Y29591D01*
G54D36*X203793Y283449D02*X201698D01*
X202841Y281925D01*
X202269D01*
X201889Y281736D01*
X201698Y281545D01*
X201507Y280973D01*
Y280593D01*
X201698Y280021D01*
X202078Y279640D01*
X202650Y279449D01*
X203221D01*
X203793Y279640D01*
X203983Y279831D01*
X204173Y280211D01*
X200307Y282116D02*Y279450D01*
Y281355D02*X199737Y281927D01*
X199355Y282116D01*
X198784D01*
X198403Y281927D01*
X198213Y281355D01*
Y279450D01*
Y281355D02*X197641Y281927D01*
X197261Y282116D01*
X196689D01*
X196309Y281927D01*
X196118Y281355D01*
Y279450D01*
X194918Y282116D02*Y279450D01*
Y281355D02*X194348Y281927D01*
X193966Y282116D01*
X193395D01*
X193014Y281927D01*
X192824Y281355D01*
Y279450D01*
Y281355D02*X192252Y281927D01*
X191872Y282116D01*
X191300D01*
X190920Y281927D01*
X190729Y281355D01*
Y279450D01*
X204398Y289622D02*Y285622D01*
X202398D01*
X201198Y287822D02*X199698D01*
X201198Y285622D02*X199198D01*
X201198Y289622D02*Y285622D01*
Y289622D02*X199198D01*
X197498D02*Y285622D01*
X196198Y289622D02*X195498Y288922D01*
Y286322D01*
X196198Y285622D02*X195498Y286322D01*
X197998Y285622D02*X196198D01*
X197998Y289622D02*X196198D01*
X194298Y289122D02*X193798Y289622D01*
X192298D01*
X191798Y289122D01*
Y288122D01*
X194298Y285622D02*X191798Y288122D01*
X194298Y285622D02*X191798D01*
X205677Y364157D02*X205177Y363657D01*
X207177Y364157D02*X205677D01*
X207677Y363657D02*X207177Y364157D01*
X207677Y363657D02*Y362657D01*
X207177Y362157D01*
X205677D01*
X205177Y361657D01*
Y360657D01*
X205677Y360157D02*X205177Y360657D01*
X207177Y360157D02*X205677D01*
X207677Y360657D02*X207177Y360157D01*
X203977Y363657D02*Y360657D01*
Y363657D02*X203477Y364157D01*
X202477D01*
X201977Y363657D01*
Y360657D01*
X202477Y360157D02*X201977Y360657D01*
X203477Y360157D02*X202477D01*
X203977Y360657D02*X203477Y360157D01*
X200777Y364157D02*Y360157D01*
X198777D01*
X197077Y364157D02*Y360157D01*
X195777Y364157D02*X195077Y363457D01*
Y360857D01*
X195777Y360157D02*X195077Y360857D01*
X197577Y360157D02*X195777D01*
X197577Y364157D02*X195777D01*
X193877Y362357D02*X192377D01*
X193877Y360157D02*X191877D01*
X193877Y364157D02*Y360157D01*
Y364157D02*X191877D01*
X190677D02*X188677D01*
X188177Y363657D01*
Y362657D01*
X188677Y362157D02*X188177Y362657D01*
X190177Y362157D02*X188677D01*
X190177Y364157D02*Y360157D01*
X189377Y362157D02*X188177Y360157D01*
X209055Y358252D02*Y354252D01*
X206555Y358252D02*Y354252D01*
X209055Y356252D02*X206555D01*
X205355Y357252D02*Y354252D01*
Y357252D02*X204655Y358252D01*
X203555D01*
X202855Y357252D01*
Y354252D01*
X205355Y356252D02*X202855D01*
X201655Y358252D02*Y354252D01*
Y358252D02*X199155Y354252D01*
Y358252D02*Y354252D01*
X195955Y358252D02*X195455Y357752D01*
X197455Y358252D02*X195955D01*
X197955Y357752D02*X197455Y358252D01*
X197955Y357752D02*Y354752D01*
X197455Y354252D01*
X195955D01*
X195455Y354752D01*
Y355752D02*Y354752D01*
X195955Y356252D02*X195455Y355752D01*
X196955Y356252D02*X195955D01*
X194255Y358252D02*X193255D01*
X193755D02*Y354252D01*
X194255D02*X193255D01*
X192055Y358252D02*Y354252D01*
Y358252D02*X189555Y354252D01*
Y358252D02*Y354252D01*
X186355Y358252D02*X185855Y357752D01*
X187855Y358252D02*X186355D01*
X188355Y357752D02*X187855Y358252D01*
X188355Y357752D02*Y354752D01*
X187855Y354252D01*
X186355D01*
X185855Y354752D01*
Y355752D02*Y354752D01*
X186355Y356252D02*X185855Y355752D01*
X187355Y356252D02*X186355D01*
X212598Y352346D02*Y348346D01*
X210598D01*
X209398Y351846D02*Y348846D01*
Y351846D02*X208898Y352346D01*
X207898D01*
X207398Y351846D01*
Y348846D01*
X207898Y348346D02*X207398Y348846D01*
X208898Y348346D02*X207898D01*
X209398Y348846D02*X208898Y348346D01*
X206198Y351846D02*Y348846D01*
Y351846D02*X205698Y352346D01*
X204698D01*
X204198Y351846D01*
Y348846D01*
X204698Y348346D02*X204198Y348846D01*
X205698Y348346D02*X204698D01*
X206198Y348846D02*X205698Y348346D01*
X202498Y352346D02*Y348346D01*
X202998Y352346D02*X200998D01*
X200498Y351846D01*
Y350846D01*
X200998Y350346D02*X200498Y350846D01*
X202498Y350346D02*X200998D01*
X197498Y352346D02*Y348346D01*
X194998Y352346D02*Y348346D01*
X197498Y350346D02*X194998D01*
X193798Y350546D02*X192298D01*
X193798Y348346D02*X191798D01*
X193798Y352346D02*Y348346D01*
Y352346D02*X191798D01*
X190598D02*X188598D01*
X188098Y351846D01*
Y350846D01*
X188598Y350346D02*X188098Y350846D01*
X190098Y350346D02*X188598D01*
X190098Y352346D02*Y348346D01*
X189298Y350346D02*X188098Y348346D01*
X186898Y350546D02*X185398D01*
X186898Y348346D02*X184898D01*
X186898Y352346D02*Y348346D01*
Y352346D02*X184898D01*
X297297Y288370D02*X295202D01*
X296345Y286846D01*
X295773D01*
X295393Y286657D01*
X295202Y286466D01*
X295011Y285894D01*
Y285514D01*
X295202Y284942D01*
X295582Y284561D01*
X296154Y284370D01*
X296725D01*
X297297Y284561D01*
X297487Y284752D01*
X297677Y285132D01*
X293811Y287037D02*Y284371D01*
Y286276D02*X293241Y286848D01*
X292859Y287037D01*
X292288D01*
X291907Y286848D01*
X291717Y286276D01*
Y284371D01*
Y286276D02*X291145Y286848D01*
X290765Y287037D01*
X290193D01*
X289813Y286848D01*
X289622Y286276D01*
Y284371D01*
X288422Y287037D02*Y284371D01*
Y286276D02*X287852Y286848D01*
X287470Y287037D01*
X286899D01*
X286518Y286848D01*
X286328Y286276D01*
Y284371D01*
Y286276D02*X285756Y286848D01*
X285376Y287037D01*
X284804D01*
X284424Y286848D01*
X284233Y286276D01*
Y284371D01*
X297902Y294543D02*Y290543D01*
X295902D01*
X294702Y292743D02*X293202D01*
X294702Y290543D02*X292702D01*
X294702Y294543D02*Y290543D01*
Y294543D02*X292702D01*
X291002D02*Y290543D01*
X289702Y294543D02*X289002Y293843D01*
Y291243D01*
X289702Y290543D02*X289002Y291243D01*
X291502Y290543D02*X289702D01*
X291502Y294543D02*X289702D01*
X287802Y293743D02*X287002Y294543D01*
Y290543D01*
X287802D02*X286302D01*
X378110Y41913D02*Y38413D01*
X377610Y37913D01*
X376610D01*
X376110Y38413D01*
Y41913D02*Y38413D01*
X372910Y41913D02*X372410Y41413D01*
X374410Y41913D02*X372910D01*
X374910Y41413D02*X374410Y41913D01*
X374910Y41413D02*Y40413D01*
X374410Y39913D01*
X372910D01*
X372410Y39413D01*
Y38413D01*
X372910Y37913D02*X372410Y38413D01*
X374410Y37913D02*X372910D01*
X374910Y38413D02*X374410Y37913D01*
X371210D02*X369210D01*
X368710Y38413D01*
Y39613D02*Y38413D01*
X369210Y40113D02*X368710Y39613D01*
X370710Y40113D02*X369210D01*
X370710Y41913D02*Y37913D01*
X371210Y41913D02*X369210D01*
X368710Y41413D01*
Y40613D01*
X369210Y40113D02*X368710Y40613D01*
X365710Y37913D02*X363710D01*
X363210Y38413D01*
Y39613D02*Y38413D01*
X363710Y40113D02*X363210Y39613D01*
X365210Y40113D02*X363710D01*
X365210Y41913D02*Y37913D01*
X365710Y41913D02*X363710D01*
X363210Y41413D01*
Y40613D01*
X363710Y40113D02*X363210Y40613D01*
X360210Y39913D02*X359210Y37913D01*
X358210Y39913D02*X359210Y37913D01*
X356510D02*X355010D01*
X357010Y38413D02*X356510Y37913D01*
X357010Y39413D02*Y38413D01*
Y39413D02*X356510Y39913D01*
X355510D01*
X355010Y39413D01*
X357010Y38913D02*X355010D01*
Y39413D01*
X353310D02*Y37913D01*
Y39413D02*X352810Y39913D01*
X351810D01*
X353810D02*X353310Y39413D01*
X350110Y41913D02*Y38413D01*
X349610Y37913D01*
X350610Y40413D02*X349610D01*
X348610Y40913D02*Y40813D01*
Y39413D02*Y37913D01*
X347110Y39913D02*X345610D01*
X347610Y39413D02*X347110Y39913D01*
X347610Y39413D02*Y38413D01*
X347110Y37913D01*
X345610D01*
X342910Y39913D02*X342410Y39413D01*
X343910Y39913D02*X342910D01*
X344410Y39413D02*X343910Y39913D01*
X344410Y39413D02*Y38413D01*
X343910Y37913D01*
X342410Y39913D02*Y38413D01*
X341910Y37913D01*
X343910D02*X342910D01*
X342410Y38413D01*
X340710Y41913D02*Y38413D01*
X340210Y37913D01*
X388878Y51972D02*Y48472D01*
X388378Y47972D01*
X387378D01*
X386878Y48472D01*
Y51972D02*Y48472D01*
X383678Y51972D02*X383178Y51472D01*
X385178Y51972D02*X383678D01*
X385678Y51472D02*X385178Y51972D01*
X385678Y51472D02*Y50472D01*
X385178Y49972D01*
X383678D01*
X383178Y49472D01*
Y48472D01*
X383678Y47972D02*X383178Y48472D01*
X385178Y47972D02*X383678D01*
X385678Y48472D02*X385178Y47972D01*
X381978D02*X379978D01*
X379478Y48472D01*
Y49672D02*Y48472D01*
X379978Y50172D02*X379478Y49672D01*
X381478Y50172D02*X379978D01*
X381478Y51972D02*Y47972D01*
X381978Y51972D02*X379978D01*
X379478Y51472D01*
Y50672D01*
X379978Y50172D02*X379478Y50672D01*
X378278Y47972D02*X376278D01*
X375778Y48472D01*
Y49672D02*Y48472D01*
X376278Y50172D02*X375778Y49672D01*
X377778Y50172D02*X376278D01*
X377778Y51972D02*Y47972D01*
X378278Y51972D02*X376278D01*
X375778Y51472D01*
Y50672D01*
X376278Y50172D02*X375778Y50672D01*
X342941Y8646D02*X342441Y8146D01*
X344441Y8646D02*X342941D01*
X344941Y8146D02*X344441Y8646D01*
X344941Y8146D02*Y5146D01*
X344441Y4646D01*
X342941D01*
X342441Y5146D01*
Y6146D02*Y5146D01*
X342941Y6646D02*X342441Y6146D01*
X343941Y6646D02*X342941D01*
X341241Y8646D02*Y4646D01*
Y8646D02*X338741Y4646D01*
Y8646D02*Y4646D01*
X337041Y8646D02*Y4646D01*
X335741Y8646D02*X335041Y7946D01*
Y5346D01*
X335741Y4646D02*X335041Y5346D01*
X337541Y4646D02*X335741D01*
X337541Y8646D02*X335741D01*
M02*
