G04 start of page 2 for group 9 layer_idx 9 *
G04 Title: (unknown), bottom_mask *
G04 Creator: pcb-rnd 3.1.5-dev *
G04 CreationDate: 2024-04-03 12:21:39 UTC *
G04 For: STEM4ukraine *
G04 Format: Gerber/RS-274X *
G04 PCB-Dimensions: 393701 393701 *
G04 PCB-Coordinate-Origin: lower left *
%MOIN*%
%FSLAX25Y25*%
%LNBOTTOM_MASK_NONE_9*%
%ADD46C,0.0210*%
%ADD45C,0.0860*%
%ADD44C,0.0001*%
%ADD43C,0.1595*%
%ADD42C,0.0887*%
G54D42*X351378Y29331D03*
Y16732D03*
G54D43*X332598Y20472D02*Y18898D01*
G54D44*G36*
X311938Y5543D02*X303338D01*
Y14143D01*
X311938D01*
Y5543D01*
G37*
G54D43*X380000Y20472D02*Y18898D01*
G54D42*X361220Y16732D03*
Y29331D03*
G54D45*X277638Y9843D03*
G54D44*G36*
X271363Y271117D02*X263873D01*
Y283528D01*
X271363D01*
Y271117D01*
G37*
G36*
X281363D02*X273873D01*
Y283528D01*
X281363D01*
Y271117D01*
G37*
G36*
X214267Y339867D02*X273922D01*
Y307771D01*
X214267D01*
Y339867D01*
G37*
G36*
X267095Y5543D02*X258495D01*
Y14143D01*
X267095D01*
Y5543D01*
G37*
G54D45*X232795Y9843D03*
G54D44*G36*
X209851Y14143D02*Y5543D01*
X201251D01*
Y14143D01*
X209851D01*
G37*
G54D45*X215551Y9843D03*
G54D44*G36*
X177859Y266196D02*X170369D01*
Y278607D01*
X177859D01*
Y266196D01*
G37*
G36*
X187859D02*X180369D01*
Y278607D01*
X187859D01*
Y266196D01*
G37*
G36*
X119779Y339867D02*X179434D01*
Y307771D01*
X119779D01*
Y339867D01*
G37*
G54D46*X217523Y139693D02*Y170366D01*
Y139693D02*X215208D01*
X217523Y135559D02*X215208D01*
X210815Y145060D02*X212397Y158419D01*
X221657Y178964D02*Y119023D01*
X207843Y119025D01*
X217523Y123157D02*Y135559D01*
X208222Y123157D02*X217523D01*
X207419Y129147D02*X209705Y129750D01*
X206264Y141669D02*X208297Y158892D01*
X205948Y133078D02*X208581Y133734D01*
X176184Y170366D02*Y139693D01*
X182892Y145060D02*X181310Y158419D01*
X187443Y141669D02*X185410Y158892D01*
X172050Y178964D02*Y119023D01*
X176184Y135559D02*Y123157D01*
X178499Y139693D02*X176184D01*
X178499Y135559D02*X176184D01*
X185485Y123157D02*X176184D01*
X186288Y129147D02*X184002Y129750D01*
X187759Y133078D02*X185126Y133734D01*
X193794Y175891D02*X194456Y157551D01*
X199913Y175891D02*X199251Y157551D01*
X194787Y123157D02*X189619D01*
X185485Y119023D02*X172050D01*
X194787D02*X190074D01*
X204088Y123157D02*X198920D01*
X194787Y119023D02*Y110301D01*
X203633Y119023D02*X198920D01*
Y110301D01*
X172050Y178964D02*G75*G02X185410Y158892I-12402J-22736D01*G01*
X185126Y133734D02*G75*G02X187445Y141655I1393J3892D01*G01*
X178513Y139689D02*G75*G02X182893Y145056I8006J-2063D01*G01*
X184002Y129750D02*G75*G02X178513Y135562I2517J7875D01*G01*
X176188Y170375D02*G75*G02X181303Y158418I-16540J-14147D01*G01*
X221657Y178964D02*G75*G03X208297Y158892I12402J-22736D01*G01*
X215194Y139689D02*G75*G03X210814Y145056I-8006J-2063D01*G01*
X217519Y170375D02*G75*G03X212404Y158418I16540J-14147D01*G01*
X193794Y175891D02*G75*G02X196857Y185105I12361J1007D01*G01*
X187743Y133089D02*G75*G03X194461Y157551I-36362J23139D01*G01*
X194787Y123157D02*G75*G03X190279Y128097I-4961J0D01*G01*
X189619Y123157D02*G75*G02X190287Y128095I18602J0D01*G01*
X196850Y102362D02*G75*G03X194494Y105032I-7231J-4008D01*G01*
X196857Y102362D02*G75*G02X199213Y105032I7231J-4008D01*G01*
X198926Y110296D02*G75*G03X203623Y119026I-13440J12861D01*G01*
X194781Y110296D02*G75*G02X190084Y119026I13440J12861D01*G01*
X199212Y105032D02*G75*G03X207843Y119025I-13727J18125D01*G01*
X185485Y123157D02*G75*G02X186288Y129146I22736J0D01*G01*
X194495Y105032D02*G75*G02X185864Y119025I13727J18125D01*G01*
X199913Y175891D02*G75*G03X196850Y185105I-12361J1007D01*G01*
X191931Y132005D02*G75*G03X196858Y143465I-40550J24223D01*G01*
X196846Y128939D02*G75*G03X191934Y132004I-7020J-5781D01*G01*
X201776Y132005D02*G75*G02X196849Y143465I40550J24223D01*G01*
X208581Y133734D02*G75*G03X206262Y141655I-1393J3892D01*G01*
X198920Y123157D02*G75*G02X203428Y128097I4961J0D01*G01*
X196861Y128939D02*G75*G02X201773Y132004I7020J-5781D01*G01*
X204088Y123157D02*G75*G03X203420Y128095I-18602J0D01*G01*
X209705Y129750D02*G75*G03X215194Y135562I-2517J7875D01*G01*
X208222Y123157D02*G75*G03X207419Y129146I-22736J0D01*G01*
X205964Y133089D02*G75*G02X199246Y157551I36362J23139D01*G01*
M02*
