G04 start of page 2 for group 8 layer_idx 1 *
G04 Title: (unknown), bottom_copper *
G04 Creator: pcb-rnd 3.1.5-dev *
G04 CreationDate: 2024-04-03 12:21:39 UTC *
G04 For: STEM4ukraine *
G04 Format: Gerber/RS-274X *
G04 PCB-Dimensions: 393701 393701 *
G04 PCB-Coordinate-Origin: lower left *
%MOIN*%
%FSLAX25Y25*%
%LNBOTTOM_COPPER_NONE_8*%
%ADD25C,0.1220*%
%ADD24C,0.0394*%
%ADD23C,0.0374*%
%ADD22C,0.0800*%
%ADD21C,0.1535*%
%ADD20C,0.0827*%
%ADD19C,0.0400*%
%ADD18C,0.0001*%
G54D18*G36*
X273262Y269630D02*X273553Y269509D01*
X273638Y269489D01*
Y14974D01*
X273152Y14560D01*
Y269697D01*
X273262Y269630D01*
G37*
G36*
X392717Y120079D02*Y984D01*
X385700D01*
Y10455D01*
X386000Y10639D01*
X387219Y11679D01*
X388259Y12897D01*
X389096Y14263D01*
X389709Y15743D01*
X390083Y17301D01*
X390150Y18435D01*
X385700D01*
Y20935D01*
X390150D01*
X390083Y22069D01*
X389709Y23627D01*
X389096Y25107D01*
X388259Y26473D01*
X387219Y27691D01*
X386000Y28731D01*
X385700Y28915D01*
Y126286D01*
X392717Y120079D01*
G37*
G36*
X385700Y126286D02*Y28915D01*
X384635Y29568D01*
X383155Y30181D01*
X381597Y30555D01*
X381250Y30583D01*
Y20935D01*
X385700D01*
Y18435D01*
X381250D01*
Y8787D01*
X381597Y8815D01*
X383155Y9189D01*
X384635Y9802D01*
X385700Y10455D01*
Y984D01*
X374300D01*
Y10455D01*
X375365Y9802D01*
X376845Y9189D01*
X378403Y8815D01*
X378750Y8787D01*
Y18435D01*
X374300D01*
Y20935D01*
X378750D01*
Y30583D01*
X378403Y30555D01*
X376845Y30181D01*
X375365Y29568D01*
X374300Y28915D01*
Y136370D01*
X385700Y126286D01*
G37*
G36*
X367126Y142717D02*X374300Y136370D01*
Y28915D01*
X374000Y28731D01*
X372781Y27691D01*
X371741Y26473D01*
X370904Y25107D01*
X370291Y23627D01*
X369917Y22069D01*
X369850Y20935D01*
X374300D01*
Y18435D01*
X369850D01*
X369917Y17301D01*
X370291Y15743D01*
X370904Y14263D01*
X371741Y12897D01*
X372781Y11679D01*
X374000Y10639D01*
X374300Y10455D01*
Y984D01*
X361211D01*
Y10580D01*
X361220Y10580D01*
X362183Y10655D01*
X363122Y10881D01*
X364014Y11250D01*
X364837Y11755D01*
X365571Y12382D01*
X366198Y13116D01*
X366703Y13939D01*
X367072Y14831D01*
X367298Y15770D01*
X367354Y16732D01*
X367298Y17695D01*
X367072Y18634D01*
X366703Y19526D01*
X366198Y20349D01*
X365571Y21083D01*
X364837Y21710D01*
X364014Y22214D01*
X363122Y22584D01*
X362183Y22809D01*
X361220Y22885D01*
X361211Y22884D01*
Y23179D01*
X361220Y23178D01*
X362183Y23254D01*
X363122Y23479D01*
X364014Y23849D01*
X364837Y24353D01*
X365571Y24980D01*
X366198Y25714D01*
X366703Y26537D01*
X367072Y27429D01*
X367298Y28368D01*
X367354Y29331D01*
X367298Y30293D01*
X367072Y31232D01*
X366703Y32124D01*
X366198Y32947D01*
X365571Y33681D01*
X364837Y34308D01*
X364014Y34813D01*
X363122Y35182D01*
X362183Y35408D01*
X361220Y35483D01*
X361211Y35483D01*
Y146975D01*
X367126Y142717D01*
G37*
G36*
X351380Y984D02*Y10598D01*
X351648D01*
X352186Y10646D01*
X352717Y10740D01*
X353238Y10881D01*
X353745Y11067D01*
X353886Y11138D01*
X354014Y11232D01*
X354125Y11344D01*
X354218Y11472D01*
X354289Y11613D01*
X354337Y11763D01*
X354362Y11920D01*
X354361Y12078D01*
X354336Y12234D01*
X354287Y12384D01*
X354214Y12524D01*
X354121Y12652D01*
X354009Y12763D01*
X353881Y12856D01*
X353740Y12927D01*
X353589Y12975D01*
X353433Y13000D01*
X353275Y12999D01*
X353119Y12974D01*
X352970Y12922D01*
X352631Y12793D01*
X352280Y12698D01*
X351922Y12634D01*
X351560Y12602D01*
X351380D01*
Y20862D01*
X351560D01*
X351922Y20830D01*
X352280Y20767D01*
X352631Y20672D01*
X352972Y20547D01*
X353120Y20495D01*
X353276Y20469D01*
X353433Y20469D01*
X353589Y20493D01*
X353738Y20541D01*
X353879Y20612D01*
X354006Y20704D01*
X354118Y20815D01*
X354211Y20942D01*
X354283Y21082D01*
X354332Y21232D01*
X354357Y21387D01*
X354358Y21545D01*
X354334Y21700D01*
X354285Y21850D01*
X354214Y21991D01*
X354122Y22118D01*
X354011Y22230D01*
X353884Y22323D01*
X353743Y22392D01*
X353238Y22583D01*
X352717Y22724D01*
X352186Y22819D01*
X351648Y22866D01*
X351380D01*
Y23178D01*
X352340Y23254D01*
X353279Y23479D01*
X354171Y23849D01*
X354994Y24353D01*
X355729Y24980D01*
X356299Y25648D01*
X356870Y24980D01*
X357604Y24353D01*
X358427Y23849D01*
X359319Y23479D01*
X360258Y23254D01*
X361211Y23179D01*
Y22884D01*
X360258Y22809D01*
X359319Y22584D01*
X358427Y22214D01*
X357604Y21710D01*
X356870Y21083D01*
X356243Y20349D01*
X355830Y19675D01*
X355727Y19641D01*
X355586Y19569D01*
X355458Y19476D01*
X355347Y19363D01*
X355255Y19235D01*
X355183Y19094D01*
X355135Y18944D01*
X355111Y18788D01*
X355111Y18630D01*
X355136Y18474D01*
X355188Y18325D01*
X355254Y18153D01*
X355143Y17695D01*
X355068Y16732D01*
X355143Y15770D01*
X355254Y15308D01*
X355192Y15138D01*
X355140Y14990D01*
X355115Y14835D01*
X355115Y14677D01*
X355139Y14522D01*
X355187Y14372D01*
X355258Y14231D01*
X355350Y14104D01*
X355461Y13992D01*
X355588Y13899D01*
X355728Y13827D01*
X355827Y13795D01*
X356243Y13116D01*
X356870Y12382D01*
X357604Y11755D01*
X358427Y11250D01*
X359319Y10881D01*
X360258Y10655D01*
X361211Y10580D01*
Y984D01*
X351380D01*
G37*
G36*
X361211Y146975D02*Y35483D01*
X360258Y35408D01*
X359319Y35182D01*
X358427Y34813D01*
X357604Y34308D01*
X356870Y33681D01*
X356299Y33013D01*
X355729Y33681D01*
X354994Y34308D01*
X354171Y34813D01*
X353279Y35182D01*
X352340Y35408D01*
X351380Y35483D01*
Y154054D01*
X361211Y146975D01*
G37*
G36*
X347027Y24980D02*X347761Y24353D01*
X348585Y23849D01*
X349477Y23479D01*
X350415Y23254D01*
X351378Y23178D01*
X351380Y23178D01*
Y22866D01*
X351108D01*
X350570Y22819D01*
X350039Y22724D01*
X349517Y22583D01*
X349011Y22397D01*
X348870Y22326D01*
X348742Y22233D01*
X348631Y22121D01*
X348538Y21993D01*
X348467Y21852D01*
X348418Y21701D01*
X348394Y21545D01*
X348395Y21387D01*
X348420Y21231D01*
X348469Y21081D01*
X348541Y20940D01*
X348635Y20813D01*
X348747Y20701D01*
X348875Y20609D01*
X349016Y20538D01*
X349166Y20489D01*
X349323Y20465D01*
X349481Y20465D01*
X349637Y20491D01*
X349786Y20543D01*
X350125Y20672D01*
X350476Y20767D01*
X350834Y20830D01*
X351196Y20862D01*
X351380D01*
Y12602D01*
X351196D01*
X350834Y12634D01*
X350476Y12698D01*
X350125Y12793D01*
X349784Y12918D01*
X349636Y12970D01*
X349480Y12995D01*
X349323Y12996D01*
X349167Y12971D01*
X349018Y12923D01*
X348877Y12852D01*
X348749Y12760D01*
X348638Y12649D01*
X348545Y12522D01*
X348473Y12382D01*
X348424Y12233D01*
X348399Y12077D01*
X348398Y11920D01*
X348422Y11764D01*
X348471Y11614D01*
X348542Y11474D01*
X348634Y11346D01*
X348745Y11235D01*
X348872Y11142D01*
X349013Y11073D01*
X349517Y10881D01*
X350039Y10740D01*
X350570Y10646D01*
X351108Y10598D01*
X351380D01*
Y984D01*
X346445D01*
Y13767D01*
X346565Y13749D01*
X346723Y13749D01*
X346879Y13774D01*
X347029Y13824D01*
X347170Y13896D01*
X347298Y13989D01*
X347409Y14101D01*
X347501Y14229D01*
X347573Y14370D01*
X347621Y14521D01*
X347645Y14677D01*
X347645Y14835D01*
X347620Y14991D01*
X347567Y15140D01*
X347438Y15480D01*
X347344Y15831D01*
X347280Y16188D01*
X347248Y16551D01*
Y16914D01*
X347280Y17276D01*
X347344Y17634D01*
X347438Y17985D01*
X347564Y18326D01*
X347616Y18475D01*
X347641Y18630D01*
X347641Y18787D01*
X347617Y18943D01*
X347569Y19093D01*
X347498Y19233D01*
X347406Y19361D01*
X347295Y19472D01*
X347168Y19565D01*
X347028Y19637D01*
X346878Y19686D01*
X346723Y19711D01*
X346565Y19712D01*
X346445Y19693D01*
Y25662D01*
X347027Y24980D01*
G37*
G36*
X351380Y154054D02*Y35483D01*
X351378Y35483D01*
X350415Y35408D01*
X349477Y35182D01*
X348585Y34813D01*
X347761Y34308D01*
X347027Y33681D01*
X346445Y32999D01*
Y157607D01*
X351380Y154054D01*
G37*
G36*
X338583Y165354D02*X342520Y160433D01*
X346445Y157607D01*
Y32999D01*
X346400Y32947D01*
X345896Y32124D01*
X345526Y31232D01*
X345301Y30293D01*
X345225Y29331D01*
X345301Y28368D01*
X345526Y27429D01*
X345896Y26537D01*
X346400Y25714D01*
X346445Y25662D01*
Y19693D01*
X346410Y19688D01*
X346260Y19640D01*
X346120Y19569D01*
X345992Y19477D01*
X345880Y19366D01*
X345787Y19239D01*
X345718Y19097D01*
X345527Y18593D01*
X345386Y18072D01*
X345292Y17540D01*
X345244Y17002D01*
Y16462D01*
X345292Y15925D01*
X345386Y15393D01*
X345527Y14872D01*
X345713Y14365D01*
X345784Y14224D01*
X345877Y14096D01*
X345989Y13985D01*
X346118Y13892D01*
X346259Y13821D01*
X346409Y13773D01*
X346445Y13767D01*
Y984D01*
X338298D01*
Y10455D01*
X338599Y10639D01*
X339817Y11679D01*
X340857Y12897D01*
X341694Y14263D01*
X342307Y15743D01*
X342681Y17301D01*
X342748Y18435D01*
X338298D01*
Y20935D01*
X342748D01*
X342681Y22069D01*
X342307Y23627D01*
X341694Y25107D01*
X340857Y26473D01*
X339817Y27691D01*
X338599Y28731D01*
X338298Y28915D01*
Y166207D01*
X338583Y165354D01*
G37*
G36*
Y217520D02*X338298Y210838D01*
Y217651D01*
X338583Y217520D01*
G37*
G36*
X338298Y217651D02*Y210838D01*
X336614Y171260D01*
X338298Y166207D01*
Y28915D01*
X337233Y29568D01*
X335753Y30181D01*
X334195Y30555D01*
X333848Y30583D01*
Y20935D01*
X338298D01*
Y18435D01*
X333848D01*
Y8787D01*
X334195Y8815D01*
X335753Y9189D01*
X337233Y9802D01*
X338298Y10455D01*
Y984D01*
X326898D01*
Y10455D01*
X327964Y9802D01*
X329444Y9189D01*
X331001Y8815D01*
X331348Y8787D01*
Y18435D01*
X326898D01*
Y20935D01*
X331348D01*
Y30583D01*
X331001Y30555D01*
X329444Y30181D01*
X327964Y29568D01*
X326898Y28915D01*
Y222912D01*
X338298Y217651D01*
G37*
G36*
X327756Y391732D02*X341535D01*
X344488Y388780D01*
Y375000D01*
X340551Y362205D01*
X327756Y337598D01*
X326898Y336006D01*
Y391487D01*
X327756Y391732D01*
G37*
G36*
X320866Y389764D02*X326898Y391487D01*
Y336006D01*
X320866Y324803D01*
X319882Y302165D01*
X323819Y292323D01*
X325787Y279528D01*
Y223425D01*
X326898Y222912D01*
Y28915D01*
X326598Y28731D01*
X325380Y27691D01*
X324340Y26473D01*
X323503Y25107D01*
X322890Y23627D01*
X322516Y22069D01*
X322449Y20935D01*
X326898D01*
Y18435D01*
X322449D01*
X322516Y17301D01*
X322890Y15743D01*
X323503Y14263D01*
X324340Y12897D01*
X325380Y11679D01*
X326598Y10639D01*
X326898Y10455D01*
Y984D01*
X307638D01*
Y3343D01*
X311540D01*
X311638Y3335D01*
X312030Y3366D01*
X312030Y3366D01*
X312413Y3458D01*
X312776Y3608D01*
X313112Y3814D01*
X313411Y4069D01*
X313667Y4369D01*
X313872Y4704D01*
X314023Y5068D01*
X314115Y5450D01*
X314146Y5843D01*
X314138Y5941D01*
Y13745D01*
X314146Y13843D01*
X314115Y14235D01*
X314115Y14235D01*
X314023Y14617D01*
X313872Y14981D01*
X313667Y15317D01*
X313411Y15616D01*
X313112Y15871D01*
X312776Y16077D01*
X312413Y16227D01*
X312030Y16319D01*
X311638Y16350D01*
X311540Y16343D01*
X307638D01*
Y382165D01*
X320866Y389764D01*
G37*
G36*
X274606Y363189D02*X307638Y382165D01*
Y16343D01*
X303736D01*
X303638Y16350D01*
X303246Y16319D01*
X303246Y16319D01*
X302863Y16227D01*
X302499Y16077D01*
X302164Y15871D01*
X301865Y15616D01*
X301609Y15317D01*
X301403Y14981D01*
X301253Y14617D01*
X301161Y14235D01*
X301130Y13843D01*
X301138Y13745D01*
Y5940D01*
X301130Y5843D01*
X301161Y5450D01*
X301161Y5450D01*
X301253Y5068D01*
X301403Y4704D01*
X301609Y4369D01*
X301865Y4069D01*
X302164Y3814D01*
X302499Y3608D01*
X302863Y3458D01*
X303246Y3366D01*
X303638Y3335D01*
X303736Y3343D01*
X307638D01*
Y984D01*
X273152D01*
Y5125D01*
X273805Y4568D01*
X274678Y4033D01*
X275623Y3642D01*
X276618Y3403D01*
X277638Y3322D01*
X278658Y3403D01*
X279653Y3642D01*
X280598Y4033D01*
X281470Y4568D01*
X282248Y5232D01*
X282913Y6010D01*
X283447Y6882D01*
X283839Y7828D01*
X284078Y8823D01*
X284138Y9843D01*
X284078Y10862D01*
X283839Y11857D01*
X283447Y12803D01*
X282913Y13675D01*
X282248Y14453D01*
X281638Y14974D01*
Y269498D01*
X281683Y269509D01*
X281974Y269630D01*
X282242Y269794D01*
X282482Y269999D01*
X282686Y270238D01*
X282851Y270507D01*
X282971Y270797D01*
X283044Y271103D01*
X283069Y271417D01*
X283063Y271496D01*
Y283150D01*
X283069Y283228D01*
X283044Y283542D01*
X282971Y283848D01*
X282850Y284139D01*
X282686Y284408D01*
X282482Y284647D01*
X282242Y284851D01*
X281974Y285016D01*
X281683Y285136D01*
X281377Y285210D01*
X281063Y285235D01*
X280985Y285228D01*
X276567D01*
X277415Y285748D01*
X278385Y286576D01*
X279213Y287546D01*
X279879Y288633D01*
X280367Y289811D01*
X280665Y291051D01*
X280740Y292323D01*
X280665Y293594D01*
X280367Y294834D01*
X279879Y296013D01*
X279213Y297100D01*
X278385Y298070D01*
X277415Y298898D01*
X276328Y299564D01*
X275149Y300052D01*
X273909Y300350D01*
X273152Y300410D01*
Y306071D01*
X273544D01*
X273622Y306065D01*
X273936Y306089D01*
X273936Y306089D01*
X274242Y306163D01*
X274533Y306283D01*
X274801Y306448D01*
X275041Y306652D01*
X275245Y306892D01*
X275410Y307160D01*
X275530Y307451D01*
X275604Y307757D01*
X275628Y308071D01*
X275622Y308149D01*
Y339489D01*
X275628Y339567D01*
X275604Y339881D01*
X275604Y339881D01*
X275530Y340187D01*
X275410Y340478D01*
X275245Y340746D01*
X275041Y340986D01*
X274801Y341190D01*
X274533Y341354D01*
X274242Y341475D01*
X273936Y341548D01*
X273622Y341573D01*
X273544Y341567D01*
X273152D01*
Y363189D01*
X274606D01*
G37*
G36*
X262994Y269794D02*X263262Y269630D01*
X263553Y269509D01*
X263859Y269436D01*
X264173Y269411D01*
X264252Y269417D01*
X266118D01*
X266275Y269427D01*
X266428Y269463D01*
X266574Y269524D01*
X266708Y269606D01*
X266827Y269708D01*
X266930Y269828D01*
X267012Y269962D01*
X267072Y270107D01*
X267109Y270260D01*
X267121Y270417D01*
X267109Y270574D01*
X267072Y270727D01*
X267012Y270873D01*
X266930Y271007D01*
X266827Y271127D01*
X266708Y271229D01*
X266574Y271311D01*
X266428Y271371D01*
X266275Y271408D01*
X266173Y271414D01*
X266173Y271417D01*
X269057D01*
X269057Y271414D01*
X268961Y271408D01*
X268808Y271371D01*
X268663Y271311D01*
X268529Y271229D01*
X268409Y271127D01*
X268307Y271007D01*
X268224Y270873D01*
X268164Y270727D01*
X268127Y270574D01*
X268115Y270417D01*
X268127Y270260D01*
X268164Y270107D01*
X268224Y269962D01*
X268307Y269828D01*
X268409Y269708D01*
X268529Y269606D01*
X268663Y269524D01*
X268808Y269463D01*
X268961Y269427D01*
X269118Y269417D01*
X270985D01*
X271063Y269411D01*
X271377Y269436D01*
X271683Y269509D01*
X271974Y269630D01*
X272242Y269794D01*
X272482Y269999D01*
X272618Y270159D01*
X272755Y269999D01*
X272994Y269794D01*
X273152Y269697D01*
Y14560D01*
X273027Y14453D01*
X272363Y13675D01*
X271828Y12803D01*
X271437Y11857D01*
X271198Y10862D01*
X271118Y9843D01*
X271198Y8823D01*
X271437Y7828D01*
X271828Y6882D01*
X272363Y6010D01*
X273027Y5232D01*
X273152Y5125D01*
Y984D01*
X262795D01*
Y3343D01*
X266697D01*
X266795Y3335D01*
X267187Y3366D01*
X267188Y3366D01*
X267570Y3458D01*
X267934Y3608D01*
X268269Y3814D01*
X268568Y4069D01*
X268824Y4369D01*
X269030Y4704D01*
X269180Y5068D01*
X269272Y5450D01*
X269303Y5843D01*
X269295Y5941D01*
Y13745D01*
X269303Y13843D01*
X269272Y14235D01*
X269272Y14235D01*
X269180Y14617D01*
X269030Y14981D01*
X268824Y15317D01*
X268568Y15616D01*
X268269Y15871D01*
X267934Y16077D01*
X267570Y16227D01*
X267188Y16319D01*
X266795Y16350D01*
X266697Y16343D01*
X262795D01*
Y269964D01*
X262994Y269794D01*
G37*
G36*
X262863Y277869D02*X263016Y277832D01*
X263173Y277820D01*
X263330Y277832D01*
X263483Y277869D01*
X263629Y277929D01*
X263763Y278011D01*
X263883Y278114D01*
X263985Y278233D01*
X264067Y278367D01*
X264127Y278513D01*
X264164Y278666D01*
X264173Y278823D01*
Y275823D01*
X264164Y275980D01*
X264127Y276133D01*
X264067Y276278D01*
X263985Y276412D01*
X263883Y276532D01*
X263763Y276634D01*
X263629Y276717D01*
X263483Y276777D01*
X263330Y276814D01*
X263173Y276826D01*
X263016Y276814D01*
X262863Y276777D01*
X262795Y276749D01*
Y277897D01*
X262863Y277869D01*
G37*
G36*
X273152Y306071D02*Y300410D01*
X272638Y300450D01*
X271366Y300350D01*
X270126Y300052D01*
X268948Y299564D01*
X267861Y298898D01*
X266891Y298070D01*
X266063Y297100D01*
X265396Y296013D01*
X264908Y294834D01*
X264611Y293594D01*
X264510Y292323D01*
X264611Y291051D01*
X264908Y289811D01*
X265396Y288633D01*
X266063Y287546D01*
X266891Y286576D01*
X267861Y285748D01*
X268793Y285176D01*
X268663Y285122D01*
X268529Y285040D01*
X268409Y284938D01*
X268307Y284818D01*
X268224Y284684D01*
X268164Y284538D01*
X268127Y284385D01*
X268115Y284228D01*
X268127Y284071D01*
X268164Y283918D01*
X268224Y283773D01*
X268307Y283639D01*
X268409Y283519D01*
X268529Y283417D01*
X268663Y283335D01*
X268808Y283274D01*
X268961Y283238D01*
X269057Y283232D01*
X269057Y283228D01*
X266173D01*
X266173Y283232D01*
X266275Y283238D01*
X266428Y283274D01*
X266574Y283335D01*
X266708Y283417D01*
X266827Y283519D01*
X266930Y283639D01*
X267012Y283773D01*
X267072Y283918D01*
X267109Y284071D01*
X267121Y284228D01*
X267109Y284385D01*
X267072Y284538D01*
X267012Y284684D01*
X266930Y284818D01*
X266827Y284938D01*
X266708Y285040D01*
X266574Y285122D01*
X266428Y285182D01*
X266275Y285219D01*
X266118Y285228D01*
X264252D01*
X264173Y285235D01*
X263859Y285210D01*
X263553Y285136D01*
X263262Y285016D01*
X262994Y284851D01*
X262795Y284682D01*
Y306071D01*
X273152D01*
G37*
G36*
X268701Y363189D02*X273152D01*
Y341567D01*
X262795D01*
Y364207D01*
X268701Y363189D01*
G37*
G36*
X262795Y306071D02*Y284682D01*
X262755Y284647D01*
X262550Y284408D01*
X262386Y284139D01*
X262265Y283848D01*
X262192Y283542D01*
X262167Y283228D01*
X262173Y283150D01*
Y278823D01*
X262182Y278666D01*
X262219Y278513D01*
X262279Y278367D01*
X262362Y278233D01*
X262464Y278114D01*
X262584Y278011D01*
X262718Y277929D01*
X262795Y277897D01*
Y276749D01*
X262718Y276717D01*
X262584Y276634D01*
X262464Y276532D01*
X262362Y276412D01*
X262279Y276278D01*
X262219Y276133D01*
X262182Y275980D01*
X262173Y275823D01*
Y271496D01*
X262167Y271417D01*
X262192Y271103D01*
X262265Y270797D01*
X262386Y270507D01*
X262550Y270238D01*
X262755Y269999D01*
X262795Y269964D01*
Y16343D01*
X258893D01*
X258795Y16350D01*
X258403Y16319D01*
X258403Y16319D01*
X258020Y16227D01*
X257657Y16077D01*
X257321Y15871D01*
X257022Y15616D01*
X256766Y15317D01*
X256561Y14981D01*
X256410Y14617D01*
X256318Y14235D01*
X256288Y13843D01*
X256295Y13745D01*
Y5940D01*
X256288Y5843D01*
X256318Y5450D01*
X256318Y5450D01*
X256410Y5068D01*
X256561Y4704D01*
X256766Y4369D01*
X257022Y4069D01*
X257321Y3814D01*
X257657Y3608D01*
X258020Y3458D01*
X258403Y3366D01*
X258795Y3335D01*
X258893Y3343D01*
X262795D01*
Y984D01*
X220673D01*
Y7001D01*
X220754Y7008D01*
X220946Y7054D01*
X221127Y7131D01*
X221294Y7234D01*
X221443Y7363D01*
X221570Y7513D01*
X221672Y7681D01*
X221743Y7865D01*
X221899Y8417D01*
X222000Y8983D01*
X222051Y9555D01*
Y10130D01*
X222000Y10702D01*
X221899Y11268D01*
X221749Y11822D01*
X221676Y12006D01*
X221573Y12174D01*
X221446Y12325D01*
X221297Y12454D01*
X221129Y12558D01*
X220947Y12634D01*
X220755Y12681D01*
X220673Y12688D01*
Y229921D01*
X222285Y227820D01*
X223972Y225172D01*
X225422Y222386D01*
X226624Y219484D01*
X227569Y216489D01*
X228248Y213423D01*
X228658Y210309D01*
X228795Y207172D01*
Y14974D01*
X228185Y14453D01*
X227520Y13675D01*
X226986Y12803D01*
X226594Y11857D01*
X226355Y10862D01*
X226275Y9843D01*
X226355Y8823D01*
X226594Y7828D01*
X226986Y6882D01*
X227520Y6010D01*
X228185Y5232D01*
X228963Y4568D01*
X229835Y4033D01*
X230780Y3642D01*
X231775Y3403D01*
X232795Y3322D01*
X233815Y3403D01*
X234810Y3642D01*
X235755Y4033D01*
X236628Y4568D01*
X237406Y5232D01*
X238070Y6010D01*
X238605Y6882D01*
X238996Y7828D01*
X239235Y8823D01*
X239295Y9843D01*
X239235Y10862D01*
X238996Y11857D01*
X238605Y12803D01*
X238070Y13675D01*
X237406Y14453D01*
X236795Y14974D01*
Y207172D01*
X236795Y207173D01*
X236670Y211010D01*
X236168Y214819D01*
X235336Y218570D01*
X234181Y222235D01*
X232711Y225785D01*
X230937Y229193D01*
X228872Y232433D01*
X226533Y235481D01*
X223938Y238314D01*
X223491Y238701D01*
X220673Y241519D01*
Y306071D01*
X262795D01*
G37*
G36*
X215553Y984D02*Y3343D01*
X215838D01*
X216411Y3393D01*
X216977Y3494D01*
X217531Y3645D01*
X217714Y3718D01*
X217883Y3820D01*
X218034Y3948D01*
X218163Y4097D01*
X218267Y4265D01*
X218343Y4447D01*
X218390Y4639D01*
X218407Y4835D01*
X218392Y5032D01*
X218347Y5224D01*
X218272Y5407D01*
X218170Y5576D01*
X218043Y5726D01*
X217893Y5855D01*
X217725Y5959D01*
X217543Y6036D01*
X217352Y6083D01*
X217155Y6099D01*
X216958Y6085D01*
X216767Y6036D01*
X216427Y5940D01*
X216080Y5878D01*
X215728Y5846D01*
X215553D01*
Y13839D01*
X215728D01*
X216080Y13807D01*
X216427Y13745D01*
X216768Y13653D01*
X216959Y13604D01*
X217155Y13590D01*
X217351Y13606D01*
X217542Y13653D01*
X217724Y13729D01*
X217891Y13833D01*
X218040Y13961D01*
X218167Y14112D01*
X218269Y14280D01*
X218343Y14462D01*
X218388Y14654D01*
X218403Y14850D01*
X218386Y15046D01*
X218339Y15237D01*
X218263Y15418D01*
X218159Y15586D01*
X218031Y15735D01*
X217881Y15862D01*
X217712Y15964D01*
X217529Y16034D01*
X216977Y16191D01*
X216411Y16292D01*
X215838Y16343D01*
X215553D01*
Y235325D01*
X217841Y233038D01*
X218227Y232603D01*
X220373Y230312D01*
X220673Y229921D01*
Y12688D01*
X220558Y12698D01*
X220362Y12683D01*
X220169Y12638D01*
X219987Y12564D01*
X219818Y12461D01*
X219667Y12334D01*
X219538Y12184D01*
X219434Y12017D01*
X219358Y11835D01*
X219311Y11643D01*
X219294Y11446D01*
X219309Y11250D01*
X219358Y11059D01*
X219454Y10719D01*
X219516Y10371D01*
X219547Y10019D01*
Y9666D01*
X219516Y9314D01*
X219454Y8966D01*
X219361Y8625D01*
X219313Y8435D01*
X219298Y8239D01*
X219315Y8043D01*
X219362Y7852D01*
X219438Y7670D01*
X219541Y7503D01*
X219670Y7354D01*
X219820Y7227D01*
X219989Y7125D01*
X220171Y7051D01*
X220362Y7006D01*
X220558Y6991D01*
X220673Y7001D01*
Y984D01*
X215553D01*
G37*
G36*
X220673Y306071D02*Y241519D01*
X215553Y246639D01*
Y306071D01*
X220673D01*
G37*
G36*
X240157Y368110D02*X262795Y364207D01*
Y341567D01*
X215553D01*
Y369094D01*
X240157Y368110D01*
G37*
G36*
X203979Y984D02*Y3343D01*
X209453D01*
X209551Y3335D01*
X209943Y3366D01*
X209943Y3366D01*
X210326Y3458D01*
X210690Y3608D01*
X211025Y3814D01*
X211324Y4069D01*
X211580Y4369D01*
X211786Y4704D01*
X211936Y5068D01*
X212028Y5450D01*
X212059Y5843D01*
X212051Y5941D01*
Y13745D01*
X212059Y13843D01*
X212028Y14235D01*
X212028Y14235D01*
X211936Y14617D01*
X211786Y14981D01*
X211580Y15317D01*
X211324Y15616D01*
X211025Y15871D01*
X210690Y16077D01*
X210326Y16227D01*
X209943Y16319D01*
X209551Y16350D01*
X209453Y16343D01*
X203979D01*
Y246899D01*
X215553Y235325D01*
Y16343D01*
X215264D01*
X214691Y16292D01*
X214126Y16191D01*
X213571Y16040D01*
X213388Y15967D01*
X213219Y15865D01*
X213069Y15737D01*
X212940Y15588D01*
X212836Y15420D01*
X212759Y15238D01*
X212712Y15046D01*
X212696Y14850D01*
X212710Y14653D01*
X212755Y14461D01*
X212830Y14278D01*
X212932Y14109D01*
X213060Y13959D01*
X213209Y13830D01*
X213377Y13726D01*
X213559Y13649D01*
X213751Y13602D01*
X213947Y13586D01*
X214144Y13600D01*
X214335Y13649D01*
X214675Y13745D01*
X215023Y13807D01*
X215375Y13839D01*
X215553D01*
Y5846D01*
X215375D01*
X215023Y5878D01*
X214675Y5940D01*
X214334Y6032D01*
X214144Y6081D01*
X213947Y6095D01*
X213751Y6079D01*
X213560Y6032D01*
X213379Y5956D01*
X213212Y5852D01*
X213063Y5724D01*
X212936Y5573D01*
X212834Y5405D01*
X212759Y5223D01*
X212714Y5032D01*
X212700Y4835D01*
X212716Y4639D01*
X212763Y4448D01*
X212839Y4267D01*
X212943Y4099D01*
X213071Y3951D01*
X213222Y3823D01*
X213390Y3722D01*
X213573Y3651D01*
X214126Y3494D01*
X214691Y3393D01*
X215264Y3343D01*
X215553D01*
Y984D01*
X203979D01*
G37*
G36*
X215551Y369094D02*X215553Y369094D01*
Y341567D01*
X214645D01*
X214567Y341573D01*
X214253Y341548D01*
X214253Y341548D01*
X213947Y341475D01*
X213656Y341354D01*
X213388Y341190D01*
X213148Y340986D01*
X212944Y340746D01*
X212779Y340478D01*
X212659Y340187D01*
X212585Y339881D01*
X212561Y339567D01*
X212567Y339488D01*
Y308149D01*
X212561Y308071D01*
X212585Y307757D01*
X212585Y307757D01*
X212659Y307451D01*
X212779Y307160D01*
X212944Y306892D01*
X213148Y306652D01*
X213388Y306448D01*
X213656Y306283D01*
X213947Y306163D01*
X214253Y306089D01*
X214567Y306065D01*
X214645Y306071D01*
X215553D01*
Y246639D01*
X203979Y258213D01*
Y368516D01*
X215551Y369094D01*
G37*
G36*
X176181Y367126D02*X203979Y368516D01*
Y258213D01*
X189559Y272633D01*
Y278229D01*
X189565Y278307D01*
X189541Y278621D01*
X189467Y278927D01*
X189347Y279218D01*
X189182Y279486D01*
X188978Y279726D01*
X188738Y279930D01*
X188470Y280095D01*
X188179Y280215D01*
X187873Y280289D01*
X187559Y280313D01*
X187481Y280307D01*
X183064D01*
X183911Y280826D01*
X184881Y281655D01*
X185709Y282624D01*
X186375Y283712D01*
X186863Y284890D01*
X187161Y286130D01*
X187236Y287402D01*
X187161Y288673D01*
X186863Y289913D01*
X186375Y291091D01*
X185709Y292179D01*
X184881Y293148D01*
X183911Y293977D01*
X182824Y294643D01*
X181645Y295131D01*
X180405Y295429D01*
X179134Y295529D01*
X177862Y295429D01*
X176622Y295131D01*
X175444Y294643D01*
X174357Y293977D01*
X173387Y293148D01*
X172559Y292179D01*
X171892Y291091D01*
X171404Y289913D01*
X171107Y288673D01*
X171007Y287402D01*
X171107Y286130D01*
X171404Y284890D01*
X171892Y283712D01*
X172559Y282624D01*
X173387Y281655D01*
X174357Y280826D01*
X175289Y280255D01*
X175159Y280201D01*
X175025Y280119D01*
X174905Y280016D01*
X174803Y279897D01*
X174720Y279762D01*
X174660Y279617D01*
X174623Y279464D01*
X174611Y279307D01*
X174623Y279150D01*
X174660Y278997D01*
X174720Y278852D01*
X174803Y278717D01*
X174905Y278598D01*
X175025Y278496D01*
X175159Y278413D01*
X175304Y278353D01*
X175457Y278316D01*
X175553Y278311D01*
X175553Y278307D01*
X172669D01*
X172669Y278310D01*
X172771Y278316D01*
X172924Y278353D01*
X173070Y278413D01*
X173204Y278496D01*
X173323Y278598D01*
X173426Y278717D01*
X173508Y278852D01*
X173568Y278997D01*
X173605Y279150D01*
X173617Y279307D01*
X173605Y279464D01*
X173568Y279617D01*
X173508Y279762D01*
X173426Y279897D01*
X173323Y280016D01*
X173204Y280119D01*
X173070Y280201D01*
X172924Y280261D01*
X172771Y280298D01*
X172614Y280307D01*
X170748D01*
X170669Y280313D01*
X170355Y280289D01*
X170049Y280215D01*
X169759Y280095D01*
X169490Y279930D01*
X169251Y279726D01*
X169046Y279486D01*
X168882Y279218D01*
X168761Y278927D01*
X168688Y278621D01*
X168663Y278307D01*
X168669Y278229D01*
Y273902D01*
X168679Y273745D01*
X168715Y273592D01*
X168776Y273446D01*
X168858Y273312D01*
X168960Y273192D01*
X169080Y273090D01*
X169214Y273008D01*
X169359Y272948D01*
X169512Y272911D01*
X169669Y272898D01*
X169826Y272911D01*
X169979Y272948D01*
X170125Y273008D01*
X170259Y273090D01*
X170379Y273192D01*
X170481Y273312D01*
X170563Y273446D01*
X170623Y273592D01*
X170660Y273745D01*
X170669Y273901D01*
Y270902D01*
X170660Y271058D01*
X170623Y271212D01*
X170563Y271357D01*
X170481Y271491D01*
X170379Y271611D01*
X170259Y271713D01*
X170125Y271795D01*
X169979Y271856D01*
X169826Y271892D01*
X169669Y271905D01*
X169512Y271892D01*
X169359Y271856D01*
X169214Y271795D01*
X169080Y271713D01*
X168960Y271611D01*
X168858Y271491D01*
X168776Y271357D01*
X168715Y271212D01*
X168679Y271058D01*
X168669Y270902D01*
Y266574D01*
X168663Y266496D01*
X168688Y266182D01*
X168761Y265876D01*
X168882Y265585D01*
X169046Y265317D01*
X169251Y265077D01*
X169490Y264873D01*
X169759Y264709D01*
X170049Y264588D01*
X170355Y264515D01*
X170669Y264490D01*
X170748Y264496D01*
X172614D01*
X172771Y264505D01*
X172924Y264542D01*
X173070Y264602D01*
X173204Y264685D01*
X173323Y264787D01*
X173426Y264906D01*
X173508Y265041D01*
X173568Y265186D01*
X173605Y265339D01*
X173617Y265496D01*
X173605Y265653D01*
X173568Y265806D01*
X173508Y265951D01*
X173426Y266086D01*
X173323Y266205D01*
X173204Y266308D01*
X173070Y266390D01*
X172924Y266450D01*
X172771Y266487D01*
X172669Y266493D01*
X172669Y266496D01*
X175553D01*
X175553Y266492D01*
X175457Y266487D01*
X175304Y266450D01*
X175159Y266390D01*
X175025Y266308D01*
X174905Y266205D01*
X174803Y266086D01*
X174720Y265951D01*
X174660Y265806D01*
X174623Y265653D01*
X174611Y265496D01*
X174623Y265339D01*
X174660Y265186D01*
X174720Y265041D01*
X174803Y264906D01*
X174905Y264787D01*
X175025Y264685D01*
X175159Y264602D01*
X175304Y264542D01*
X175457Y264505D01*
X175614Y264496D01*
X177481D01*
X177559Y264490D01*
X177873Y264515D01*
X178179Y264588D01*
X178470Y264709D01*
X178738Y264873D01*
X178978Y265077D01*
X179114Y265237D01*
X179251Y265077D01*
X179490Y264873D01*
X179759Y264709D01*
X180049Y264588D01*
X180355Y264515D01*
X180669Y264490D01*
X180748Y264496D01*
X186383D01*
X203979Y246899D01*
Y16343D01*
X201649D01*
X201551Y16350D01*
X201159Y16319D01*
X201159Y16319D01*
X200776Y16227D01*
X200413Y16077D01*
X200077Y15871D01*
X199778Y15616D01*
X199522Y15317D01*
X199317Y14981D01*
X199166Y14617D01*
X199074Y14235D01*
X199043Y13843D01*
X199051Y13745D01*
Y5940D01*
X199043Y5843D01*
X199074Y5450D01*
X199074Y5450D01*
X199166Y5068D01*
X199317Y4704D01*
X199522Y4369D01*
X199778Y4069D01*
X200077Y3814D01*
X200413Y3608D01*
X200776Y3458D01*
X201159Y3366D01*
X201551Y3335D01*
X201649Y3343D01*
X203979D01*
Y984D01*
X149606D01*
Y306071D01*
X179055D01*
X179134Y306065D01*
X179447Y306089D01*
X179448Y306089D01*
X179754Y306163D01*
X180045Y306283D01*
X180313Y306448D01*
X180552Y306652D01*
X180757Y306892D01*
X180921Y307160D01*
X181042Y307451D01*
X181115Y307757D01*
X181140Y308071D01*
X181134Y308149D01*
Y339489D01*
X181140Y339567D01*
X181115Y339881D01*
X181115Y339881D01*
X181042Y340187D01*
X180921Y340478D01*
X180757Y340746D01*
X180552Y340986D01*
X180313Y341190D01*
X180045Y341354D01*
X179754Y341475D01*
X179448Y341548D01*
X179134Y341573D01*
X179055Y341567D01*
X149606D01*
Y366142D01*
X176181Y367126D01*
G37*
G36*
X984Y175197D02*X5906Y177165D01*
X10827Y183071D01*
X11811Y186024D01*
Y236220D01*
X14764Y240157D01*
X27559D01*
X35433Y257874D01*
X41339Y270669D01*
X55118Y300197D01*
X61024Y317913D01*
Y361220D01*
X65945Y367126D01*
X75787Y371063D01*
X89567D01*
X99409Y367126D01*
X111220Y359252D01*
X149606Y366142D01*
Y341567D01*
X120157D01*
X120079Y341573D01*
X119765Y341548D01*
X119765Y341548D01*
X119459Y341475D01*
X119168Y341354D01*
X118900Y341190D01*
X118660Y340986D01*
X118456Y340746D01*
X118291Y340478D01*
X118171Y340187D01*
X118097Y339881D01*
X118073Y339567D01*
X118079Y339488D01*
Y308149D01*
X118073Y308071D01*
X118097Y307757D01*
X118097Y307757D01*
X118171Y307451D01*
X118291Y307160D01*
X118456Y306892D01*
X118660Y306652D01*
X118900Y306448D01*
X119168Y306283D01*
X119459Y306163D01*
X119765Y306089D01*
X120079Y306065D01*
X120157Y306071D01*
X149606D01*
Y984D01*
X984D01*
Y175197D01*
G37*
G54D19*X277638Y9843D02*Y277323D01*
X232795Y9843D02*Y207172D01*
X221080Y235456D02*X184134Y272402D01*
X232795Y207172D02*G75*G03X221080Y235456I-40000J0D01*G01*
G54D20*X351378Y29331D03*
Y16732D03*
G54D21*X332598Y20472D02*Y18898D01*
G54D18*G36*
X311638Y5843D02*X303638D01*
Y13843D01*
X311638D01*
Y5843D01*
G37*
G54D21*X380000Y20472D02*Y18898D01*
G54D20*X361220Y16732D03*
Y29331D03*
G54D22*X277638Y9843D03*
G54D18*G36*
X271063Y271417D02*X264173D01*
Y283228D01*
X271063D01*
Y271417D01*
G37*
G36*
X281063D02*X274173D01*
Y283228D01*
X281063D01*
Y271417D01*
G37*
G36*
X214567Y339567D02*X273622D01*
Y308071D01*
X214567D01*
Y339567D01*
G37*
G36*
X266795Y5843D02*X258795D01*
Y13843D01*
X266795D01*
Y5843D01*
G37*
G54D22*X232795Y9843D03*
G54D18*G36*
X209551Y13843D02*Y5843D01*
X201551D01*
Y13843D01*
X209551D01*
G37*
G54D22*X215551Y9843D03*
G54D18*G36*
X177559Y266496D02*X170669D01*
Y278307D01*
X177559D01*
Y266496D01*
G37*
G36*
X187559D02*X180669D01*
Y278307D01*
X187559D01*
Y266496D01*
G37*
G36*
X120079Y339567D02*X179134D01*
Y308071D01*
X120079D01*
Y339567D01*
G37*
G54D23*G54D24*G54D23*G54D24*G54D25*G54D24*G54D25*M02*
